With: Alex Vincent, Jenny Agutter en de stem van Brad Dourif

Het jongetje Andy woont bij zijn pleegouders, omdat zijn moeder psychiatrische hulp krijgt. Wanneer Chucky opnieuw in zijn leven komt, begint de nachtmerrie van vooraf aan. De moordzuchtige pop Chucky werd beroemd in de ijzingwekkende film Child's Play. De pop is een angstaanjagend figuurtje dat, onder de dekmantel van een pop, een ware duivel is.

Chuckie's back as the doll possessed by the soul of a serial killer, butchering all who stand in his way of possessing the body of a boy. 

------------------ Dutch Friends ------------------
You can find my Friends at: http://www.Film-Test.nl 
------ They got my dutch subs ----- and more ------

General:

Complete name                    : Child's Play 2\Child's Play 2.avi
Format                           : AVI
Format/Info                      : Audio Video Interleave
File size                        : 1 004 MiB
Duration                         : 1h 20mn
Overall bit rate                 : 1 746 Kbps

Video:

Format                           : MPEG-4 Visual
Format profile                   : Simple@L3
Format settings, BVOP            : No
Format settings, QPel            : No
Format settings, GMC             : No warppoints
Format settings, Matrix          : Default (H.263)
Codec ID                         : XVID
Codec ID/Hint                    : XviD
Duration                         : 1h 20mn
Bit rate                         : 1 543 Kbps
Width                            : 652 pixels
Height                           : 352 pixels
Display aspect ratio             : 1.852
Frame rate                       : 25.000 fps
Color space                      : YUV
Chroma subsampling               : 4:2:0
Bit depth                        : 8 bits
Scan type                        : Progressive
Bits/(Pixel*Frame)               : 0.269
Stream size                      : 887 MiB (88%)
Writing library                  : XviD 1.1.2 (UTC 2006-11-01)

Audio:

Format                           : AC-3
Format/Info                      : Audio Coding 3
Mode extension                   : CM (complete main)
Codec ID                         : 2000
Duration                         : 1h 20mn
Bit rate mode                    : Constant
Bit rate                         : 192 Kbps
Channel(s)                       : 2 channels
Channel positions                : Front: L R
Sampling rate                    : 48.0 KHz
Bit depth                        : 16 bits
Stream size                      : 110 MiB (11%)
Alignment                        : Aligned on interleaves
Interleave, duration             : 32 ms (0.80 video frame)
